<svg id="图层_1" data-name="图层 1" xmlns="http://www.w3.org/2000/svg" xmlns:xlink="http://www.w3.org/1999/xlink" viewBox="0 0 1296.05 697.37"><defs><style>.cls-1{fill:none;}.cls-2{font-size:21px;fill:#231815;font-family:Arial-BoldMT, Arial;font-weight:700;}.cls-3{clip-path:url(#clip-path);}.cls-4{fill:#e71f19;}.cls-12,.cls-13,.cls-4,.cls-5,.cls-6,.cls-7,.cls-8{opacity:0.4;}.cls-5{fill:#147b3b;}.cls-6{fill:#17499d;}.cls-7{fill:#94338e;}.cls-8{fill:#0655a5;}.cls-9{clip-path:url(#clip-path-6);}.cls-10{fill:#fff;}.cls-11{clip-path:url(#clip-path-7);}.cls-12{fill:#ab5922;}.cls-13{fill:#633163;}</style><clipPath id="clip-path"><rect class="cls-1" x="627.63" y="178.02" width="686.84" height="382.51"/></clipPath><clipPath id="clip-path-6"><rect class="cls-1" y="27.63" width="655.01" height="669.74"/></clipPath><clipPath id="clip-path-7"><rect class="cls-1" x="11.64" y="67.33" width="631.72" height="618.41"/></clipPath></defs><title>画板 1FigureS2</title><text class="cls-2" transform="translate(183.61 32.93)">The Overlap of Positive Samples</text><text class="cls-2" transform="translate(151.21 32.93)">(A)</text><text class="cls-2" transform="translate(850.31 174.79)">The Overlap of Negative Samples</text><text class="cls-2" transform="translate(815.69 174.79)">(B)</text><g class="cls-3"><path class="cls-4" d="M871.24,392.65a151.08,151.08,0,0,1,0-46.76,99.63,99.63,0,0,0-15.35-33.52,103.34,103.34,0,0,0-26.74-26.08,107.49,107.49,0,0,0-34.64-15.23,109.14,109.14,0,0,0-74.41,8.37,104.85,104.85,0,0,0-30.05,22.51,100.7,100.7,0,0,0-19.76,31.31,97.73,97.73,0,0,0,0,72,100.47,100.47,0,0,0,19.76,31.31,104.67,104.67,0,0,0,30.05,22.51,108.24,108.24,0,0,0,36.41,10.76,109.43,109.43,0,0,0,38-2.39,107.28,107.28,0,0,0,34.64-15.23,103.34,103.34,0,0,0,26.74-26.08,99.54,99.54,0,0,0,15.35-33.52"/></g><g class="cls-3"><path class="cls-5" d="M1184,311a151.25,151.25,0,0,1,0,116.61,69.08,69.08,0,0,0,63.94-4.24,65.25,65.25,0,0,0,22.57-23.25,62,62,0,0,0,0-61.63,65.2,65.2,0,0,0-22.57-23.26A69,69,0,0,0,1184,311"/></g><g class="cls-3"><path class="cls-6" d="M871.24,392.65a154.9,154.9,0,0,0,47.93,89.4,166,166,0,0,0,94.56,43A168.53,168.53,0,0,0,1116,504a158.75,158.75,0,0,0,68-76.46,66.12,66.12,0,0,1-28.29-23.69,62.16,62.16,0,0,1,0-69.23A66,66,0,0,1,1184,311a158.66,158.66,0,0,0-68-76.46,168.54,168.54,0,0,0-102.29-21,166,166,0,0,0-94.56,43,154.93,154.93,0,0,0-47.93,89.4,97.66,97.66,0,0,1,0,46.76"/></g><g class="cls-3"><path class="cls-7" d="M871.24,392.65a97.66,97.66,0,0,0,0-46.76,151.08,151.08,0,0,0,0,46.76"/></g><g class="cls-3"><path class="cls-8" d="M1184,311a66,66,0,0,0-28.29,23.69,62.16,62.16,0,0,0,0,69.23A66.12,66.12,0,0,0,1184,427.58,151.25,151.25,0,0,0,1184,311"/></g><polygon points="746.23 372.53 749.06 372.53 749.06 363.13 745.98 363.72 745.98 362.2 749.04 361.61 750.78 361.61 750.78 372.53 753.61 372.53 753.61 373.93 746.23 373.93 746.23 372.53"/><polygon points="757.41 372.53 760.24 372.53 760.24 363.13 757.16 363.72 757.16 362.2 760.22 361.61 761.97 361.61 761.97 372.53 764.8 372.53 764.8 373.93 757.41 373.93 757.41 372.53"/><path d="M772.6,361.61h2.18v8h1.83V371h-1.83v2.9h-1.72V371h-5.78v-1.61Zm.46,1.45-4.38,6.58h4.38Z"/><path d="M779.5,361.61h6.8V363h-5.22v3a4.13,4.13,0,0,1,.75-.19,6.51,6.51,0,0,1,.76-.07,4.89,4.89,0,0,1,3.39,1.14,3.88,3.88,0,0,1,1.27,3.06,3.82,3.82,0,0,1-1.3,3.09,5.45,5.45,0,0,1-3.62,1.08,15.77,15.77,0,0,1-1.66-.11,13.14,13.14,0,0,1-1.72-.39V372a6.6,6.6,0,0,0,1.6.61,7,7,0,0,0,1.74.19,3.45,3.45,0,0,0,2.36-.75,2.84,2.84,0,0,0,0-4.07,3.45,3.45,0,0,0-2.36-.76,6.57,6.57,0,0,0-1.39.15,7.38,7.38,0,0,0-1.4.46Z"/><path d="M1227.55,367.29a3.33,3.33,0,0,1,1.94,1.06,3,3,0,0,1,.7,2,3.35,3.35,0,0,1-1.3,2.82,6.06,6.06,0,0,1-3.71,1,11.24,11.24,0,0,1-3.43-.59V372a5.75,5.75,0,0,0,1.58.6,7.46,7.46,0,0,0,1.8.21,4.28,4.28,0,0,0,2.48-.61,2.12,2.12,0,0,0,.86-1.81,2,2,0,0,0-.79-1.69,3.55,3.55,0,0,0-2.22-.63H1224v-1.37h1.56a3.2,3.2,0,0,0,2-.49,1.61,1.61,0,0,0,.69-1.42,1.74,1.74,0,0,0-.7-1.45,3.43,3.43,0,0,0-2-.51,8.59,8.59,0,0,0-1.53.15c-.54.11-1.14.26-1.79.46v-1.49a18.49,18.49,0,0,1,1.84-.39,11.79,11.79,0,0,1,1.64-.13,5.12,5.12,0,0,1,3.11.86,2.74,2.74,0,0,1,1.16,2.33,2.59,2.59,0,0,1-.61,1.73A3.18,3.18,0,0,1,1227.55,367.29Z"/><polygon points="1233.78 372.53 1236.61 372.53 1236.61 363.13 1233.53 363.72 1233.53 362.2 1236.59 361.61 1238.33 361.61 1238.33 372.53 1241.16 372.53 1241.16 373.93 1233.78 373.93 1233.78 372.53"/><path d="M1248.16,368.46a2.39,2.39,0,0,0,1.85-.76,3.05,3.05,0,0,0,.68-2.12,3,3,0,0,0-.68-2.09,2.57,2.57,0,0,0-3.69,0,3,3,0,0,0-.69,2.09,3.06,3.06,0,0,0,.69,2.12A2.37,2.37,0,0,0,1248.16,368.46Zm-3.44,5.22v-1.52a6.79,6.79,0,0,0,1.31.46,5.94,5.94,0,0,0,1.32.15,3.17,3.17,0,0,0,2.61-1.1,6,6,0,0,0,1-3.38,3.46,3.46,0,0,1-3,1.47,4.29,4.29,0,0,1-3-7.22,4.24,4.24,0,0,1,3.11-1.15,4,4,0,0,1,3.4,1.64,8.24,8.24,0,0,1,1.17,4.75,7.06,7.06,0,0,1-1.44,4.65,4.78,4.78,0,0,1-3.87,1.72,9.51,9.51,0,0,1-1.31-.11A7.3,7.3,0,0,1,1244.72,373.68Z"/><path d="M1024.16,372.53h6v1.4h-8.14v-1.4l2.69-2.64c1.12-1.1,1.84-1.81,2.14-2.13a6.86,6.86,0,0,0,1.16-1.52,2.72,2.72,0,0,0,.34-1.23,2,2,0,0,0-.73-1.59,2.74,2.74,0,0,0-1.86-.63,6.39,6.39,0,0,0-1.72.27,11.4,11.4,0,0,0-1.94.83V362.2a15.34,15.34,0,0,1,2-.61,7.9,7.9,0,0,1,1.67-.2,4.88,4.88,0,0,1,3.16,1,3.14,3.14,0,0,1,1.2,2.56,3.63,3.63,0,0,1-.3,1.43,6.52,6.52,0,0,1-1.08,1.61c-.14.17-.59.62-1.37,1.39Z"/><path d="M1041.21,361.88v1.52a7.58,7.58,0,0,0-1.31-.46,6.22,6.22,0,0,0-1.32-.15,3.18,3.18,0,0,0-2.64,1.12,5.73,5.73,0,0,0-1,3.36,3.45,3.45,0,0,1,1.27-1.1,3.77,3.77,0,0,1,1.68-.39,4.1,4.1,0,0,1,3.05,1.14A4.2,4.2,0,0,1,1042,370a4.05,4.05,0,0,1-1.18,3,4.22,4.22,0,0,1-3.09,1.13,3.94,3.94,0,0,1-3.4-1.62,8,8,0,0,1-1.17-4.75,7,7,0,0,1,1.44-4.65,4.78,4.78,0,0,1,3.87-1.74,8.87,8.87,0,0,1,1.32.12A9.2,9.2,0,0,1,1041.21,361.88Zm-3.44,5.22a2.37,2.37,0,0,0-1.85.78,3.6,3.6,0,0,0,0,4.21,2.62,2.62,0,0,0,3.69,0,3.56,3.56,0,0,0,0-4.21A2.35,2.35,0,0,0,1037.77,367.1Z"/><polygon points="1045.33 372.53 1048.16 372.53 1048.16 363.13 1045.08 363.72 1045.08 362.2 1048.14 361.61 1049.88 361.61 1049.88 372.53 1052.71 372.53 1052.71 373.93 1045.33 373.93 1045.33 372.53"/><path d="M1059.92,361.39a3.81,3.81,0,0,1,3.29,1.64,8.33,8.33,0,0,1,1.15,4.75,8.24,8.24,0,0,1-1.15,4.75,3.8,3.8,0,0,1-3.3,1.62,3.74,3.74,0,0,1-3.29-1.62,8.25,8.25,0,0,1-1.13-4.75,8.34,8.34,0,0,1,1.13-4.75A3.79,3.79,0,0,1,1059.92,361.39Zm0,1.32a2.18,2.18,0,0,0-2,1.27,11.11,11.11,0,0,0,0,7.6,2.25,2.25,0,0,0,4,0,11.27,11.27,0,0,0,0-7.6A2.18,2.18,0,0,0,1059.92,362.71Z"/><path d="M868.06,361.61h6.8V363h-5.22v3a4.23,4.23,0,0,1,.76-.19,6.34,6.34,0,0,1,.75-.07,4.94,4.94,0,0,1,3.4,1.14,3.91,3.91,0,0,1,1.26,3.06,3.82,3.82,0,0,1-1.3,3.09,5.43,5.43,0,0,1-3.62,1.08,15.41,15.41,0,0,1-1.65-.11,12.92,12.92,0,0,1-1.73-.39V372a6.6,6.6,0,0,0,1.6.61,7,7,0,0,0,1.74.19,3.45,3.45,0,0,0,2.36-.75,2.84,2.84,0,0,0,0-4.07,3.45,3.45,0,0,0-2.36-.76,6.64,6.64,0,0,0-1.39.15,7.38,7.38,0,0,0-1.4.46Z"/><polygon points="1155.83 372.53 1158.66 372.53 1158.66 363.13 1155.58 363.72 1155.58 362.2 1158.64 361.61 1160.38 361.61 1160.38 372.53 1163.21 372.53 1163.21 373.93 1155.83 373.93 1155.83 372.53"/><path d="M1171,361.61h2.18v8H1175V371h-1.83v2.9h-1.72V371h-5.79v-1.61Zm.46,1.45-4.38,6.58h4.38Z"/><path d="M1183.15,367.29a3.33,3.33,0,0,1,1.94,1.06,3,3,0,0,1,.7,2,3.35,3.35,0,0,1-1.3,2.82,6.06,6.06,0,0,1-3.71,1,9.6,9.6,0,0,1-1.67-.15,9.44,9.44,0,0,1-1.76-.44V372a5.75,5.75,0,0,0,1.58.6,7.46,7.46,0,0,0,1.8.21,4.28,4.28,0,0,0,2.48-.61,2.12,2.12,0,0,0,.86-1.81,2,2,0,0,0-.79-1.69,3.55,3.55,0,0,0-2.22-.63h-1.49v-1.37h1.56a3.2,3.2,0,0,0,1.95-.49,1.61,1.61,0,0,0,.69-1.42,1.74,1.74,0,0,0-.7-1.45,3.43,3.43,0,0,0-2-.51,8.59,8.59,0,0,0-1.53.15c-.54.11-1.14.26-1.79.46v-1.49a18.49,18.49,0,0,1,1.84-.39,11.79,11.79,0,0,1,1.64-.13,5.12,5.12,0,0,1,3.11.86,2.74,2.74,0,0,1,1.16,2.33,2.59,2.59,0,0,1-.61,1.73A3.18,3.18,0,0,1,1183.15,367.29Z"/><path d="M738.19,483.08v2.11a8,8,0,0,0-2.25-1.4,6.9,6.9,0,0,0-2.51-.47,5.19,5.19,0,0,0-4.06,1.56,7.9,7.9,0,0,0,0,8.95,5.15,5.15,0,0,0,4.06,1.54,6.69,6.69,0,0,0,2.51-.46,7.59,7.59,0,0,0,2.25-1.4v2.09a8.18,8.18,0,0,1-2.32,1,9.67,9.67,0,0,1-2.57.35,7.41,7.41,0,0,1-5.51-2,8.9,8.9,0,0,1,0-11.24,7.43,7.43,0,0,1,5.51-2.05,9.71,9.71,0,0,1,2.59.34A8.89,8.89,0,0,1,738.19,483.08Z"/><path d="M741.4,481.94h4.71a5.91,5.91,0,0,1,3.9,1.14,4.75,4.75,0,0,1,0,6.59,5.91,5.91,0,0,1-3.9,1.12h-2.62v5.94H741.4Zm2.09,1.64v5.56h2.62a3.12,3.12,0,0,0,2.23-.71,3,3,0,0,0,0-4.12,3.17,3.17,0,0,0-2.23-.73Z"/><path d="M754.13,481.94h4.7a5.89,5.89,0,0,1,3.9,1.14,4.75,4.75,0,0,1,0,6.59,5.89,5.89,0,0,1-3.9,1.12h-2.62v5.94h-2.08Zm2.08,1.64v5.56h2.62a3.16,3.16,0,0,0,2.24-.71,3.05,3.05,0,0,0,0-4.12,3.21,3.21,0,0,0-2.24-.73Z"/><path d="M776.07,482.43v1.95a14.08,14.08,0,0,0-2.24-.82,9.33,9.33,0,0,0-2-.26,4.74,4.74,0,0,0-2.64.63,2.07,2.07,0,0,0-.91,1.8,1.78,1.78,0,0,0,.61,1.49,5.45,5.45,0,0,0,2.33.81l1.26.24a6.64,6.64,0,0,1,3.42,1.5,3.87,3.87,0,0,1,1.12,2.88,3.79,3.79,0,0,1-1.5,3.25,7.43,7.43,0,0,1-4.39,1.1,14,14,0,0,1-2.34-.23,13.29,13.29,0,0,1-2.53-.69V494a11.45,11.45,0,0,0,2.47,1,8.29,8.29,0,0,0,2.4.34,4.76,4.76,0,0,0,2.74-.67,2.4,2.4,0,0,0,.28-3.63,4.94,4.94,0,0,0-2.28-.91l-1.27-.25a6.58,6.58,0,0,1-3.37-1.4,3.33,3.33,0,0,1-1-2.63,3.69,3.69,0,0,1,1.44-3.09,6.27,6.27,0,0,1,4-1.13,14,14,0,0,1,2.19.18A16.76,16.76,0,0,1,776.07,482.43Z"/><path d="M788.14,490.2a3.55,3.55,0,0,0-.87-2.4,3,3,0,0,0-2.25-.89,3.72,3.72,0,0,0-2.54.87,3.5,3.5,0,0,0-1.09,2.42Zm1.9.53v.89h-8.72a3.72,3.72,0,0,0,4.12,3.85,9.22,9.22,0,0,0,2.11-.24,8.82,8.82,0,0,0,2.05-.79v1.72a9.3,9.3,0,0,1-2.09.63,13.41,13.41,0,0,1-2.18.21,6.13,6.13,0,0,1-4.39-1.53,5.48,5.48,0,0,1-1.6-4.18,6.07,6.07,0,0,1,1.52-4.32,5.52,5.52,0,0,1,4.14-1.6,4.86,4.86,0,0,1,3.69,1.44A5.62,5.62,0,0,1,790,490.73Z"/><path d="M795,482.49v3.14h3.9v1.42H795v6a2.64,2.64,0,0,0,.38,1.74,2.22,2.22,0,0,0,1.58.39h1.94v1.52H797a4.4,4.4,0,0,1-3-.79,3.91,3.91,0,0,1-.82-2.86v-6h-1.39v-1.42h1.39v-3.14Z"/><polygon points="802.05 495.05 805.44 495.05 805.44 483.77 801.75 484.48 801.75 482.65 805.42 481.94 807.51 481.94 807.51 495.05 810.91 495.05 810.91 496.73 802.05 496.73 802.05 495.05"/><path d="M1181.38,446v2.11a7.93,7.93,0,0,0-2.26-1.4,6.83,6.83,0,0,0-2.51-.47,5.18,5.18,0,0,0-4,1.56,7.9,7.9,0,0,0,0,8.95,5.14,5.14,0,0,0,4,1.54,6.62,6.62,0,0,0,2.51-.46,7.31,7.31,0,0,0,2.26-1.4v2.09a8.31,8.31,0,0,1-2.32,1.05,9.33,9.33,0,0,1-2.57.35,7.41,7.41,0,0,1-5.51-2,8.9,8.9,0,0,1,0-11.24,7.43,7.43,0,0,1,5.51-2.05,9.71,9.71,0,0,1,2.59.34A9,9,0,0,1,1181.38,446Z"/><path d="M1184.59,444.85h4.71a5.93,5.93,0,0,1,3.9,1.14,4.75,4.75,0,0,1,0,6.59,5.93,5.93,0,0,1-3.9,1.12h-2.62v5.94h-2.09Zm2.09,1.65v5.56h2.62a3.18,3.18,0,0,0,2.23-.71,2.68,2.68,0,0,0,.8-2.07,2.61,2.61,0,0,0-.8-2,3.14,3.14,0,0,0-2.23-.73Z"/><path d="M1197.31,444.85H1202a5.89,5.89,0,0,1,3.9,1.14,4.75,4.75,0,0,1,0,6.59,5.89,5.89,0,0,1-3.9,1.12h-2.62v5.94h-2.09Zm2.09,1.65v5.56H1202a3.21,3.21,0,0,0,2.24-.71,2.72,2.72,0,0,0,.8-2.07,2.64,2.64,0,0,0-.8-2,3.16,3.16,0,0,0-2.24-.73Z"/><path d="M1219.26,445.34v2a13.07,13.07,0,0,0-2.24-.81,8.86,8.86,0,0,0-2-.27,4.74,4.74,0,0,0-2.64.63,2.09,2.09,0,0,0-.91,1.81,1.76,1.76,0,0,0,.61,1.48,5.27,5.27,0,0,0,2.32.81l1.27.24a6.64,6.64,0,0,1,3.42,1.5,3.88,3.88,0,0,1,1.12,2.89,3.77,3.77,0,0,1-1.5,3.24,7.43,7.43,0,0,1-4.39,1.1,13,13,0,0,1-2.34-.23,13.29,13.29,0,0,1-2.53-.69v-2.07a11.1,11.1,0,0,0,2.46,1,8.4,8.4,0,0,0,2.41.34,4.76,4.76,0,0,0,2.74-.67,2.42,2.42,0,0,0,.28-3.63,5,5,0,0,0-2.28-.91l-1.27-.24a6.67,6.67,0,0,1-3.37-1.4,3.35,3.35,0,0,1-1-2.64,3.71,3.71,0,0,1,1.44-3.09,6.26,6.26,0,0,1,4-1.13,14,14,0,0,1,2.2.18A18.35,18.35,0,0,1,1219.26,445.34Z"/><path d="M1231.33,453.11a3.52,3.52,0,0,0-.87-2.39,3,3,0,0,0-2.25-.9,3.68,3.68,0,0,0-2.54.88,3.48,3.48,0,0,0-1.09,2.41Zm1.9.53v.89h-8.72a3.72,3.72,0,0,0,4.12,3.86,9.23,9.23,0,0,0,2.11-.25,8.18,8.18,0,0,0,2-.79v1.73a9.56,9.56,0,0,1-2.08.62,12.38,12.38,0,0,1-2.18.21,6.17,6.17,0,0,1-4.39-1.52,5.51,5.51,0,0,1-1.6-4.18,6.08,6.08,0,0,1,1.52-4.33,5.5,5.5,0,0,1,4.13-1.6,4.87,4.87,0,0,1,3.7,1.44A5.63,5.63,0,0,1,1233.23,453.64Z"/><path d="M1238.21,445.4v3.15h3.9V450h-3.9v6a2.63,2.63,0,0,0,.38,1.75,2.28,2.28,0,0,0,1.58.38h1.94v1.52h-1.94a4.4,4.4,0,0,1-3-.79,3.91,3.91,0,0,1-.82-2.86v-6h-1.39v-1.42h1.39V445.4Z"/><path d="M1246.67,458h7.26v1.68h-9.77V458l3.23-3.17c1.35-1.31,2.21-2.17,2.57-2.55a7.84,7.84,0,0,0,1.39-1.83,3.17,3.17,0,0,0,.4-1.48,2.42,2.42,0,0,0-.86-1.91,3.36,3.36,0,0,0-2.24-.75,7.36,7.36,0,0,0-2.06.33,13.39,13.39,0,0,0-2.33,1v-2a17.64,17.64,0,0,1,2.35-.73,9.21,9.21,0,0,1,2-.24,5.81,5.81,0,0,1,3.8,1.16,3.73,3.73,0,0,1,1.43,3.06,4.26,4.26,0,0,1-.35,1.72,7.94,7.94,0,0,1-1.29,1.93c-.17.2-.72.75-1.65,1.66S1248.34,456.32,1246.67,458Z"/><path d="M1002,538.65v2.11a8.21,8.21,0,0,0-2.26-1.4,6.86,6.86,0,0,0-2.51-.47,5.17,5.17,0,0,0-4.05,1.56,7.85,7.85,0,0,0,0,8.95,5.16,5.16,0,0,0,4.05,1.54,6.66,6.66,0,0,0,2.51-.46,7.76,7.76,0,0,0,2.26-1.4v2.08a8.07,8.07,0,0,1-2.32,1.06,9.8,9.8,0,0,1-2.58.34,7.41,7.41,0,0,1-5.51-2,8.9,8.9,0,0,1,0-11.24,7.43,7.43,0,0,1,5.51-2,9.84,9.84,0,0,1,2.6.34A8.87,8.87,0,0,1,1002,538.65Z"/><path d="M1005.2,537.51h4.71a5.89,5.89,0,0,1,3.9,1.14,4.75,4.75,0,0,1,0,6.59,5.89,5.89,0,0,1-3.9,1.12h-2.62v5.94h-2.09Zm2.09,1.64v5.56h2.62a3.16,3.16,0,0,0,2.24-.71,3.05,3.05,0,0,0,0-4.12,3.21,3.21,0,0,0-2.24-.73Z"/><path d="M1017.93,537.51h4.7a5.94,5.94,0,0,1,3.91,1.14,4.75,4.75,0,0,1,0,6.59,5.94,5.94,0,0,1-3.91,1.12H1020v5.94h-2.09Zm2.09,1.64v5.56h2.61a3.16,3.16,0,0,0,2.24-.71,3.05,3.05,0,0,0,0-4.12,3.21,3.21,0,0,0-2.24-.73Z"/><path d="M1039.87,538v1.94a15.33,15.33,0,0,0-2.23-.81,9.49,9.49,0,0,0-2-.26,4.74,4.74,0,0,0-2.64.63,2.05,2.05,0,0,0-.9,1.8,1.78,1.78,0,0,0,.61,1.49,5.34,5.34,0,0,0,2.32.81l1.26.24a6.52,6.52,0,0,1,3.42,1.5,3.87,3.87,0,0,1,1.12,2.88,3.79,3.79,0,0,1-1.5,3.25,7.43,7.43,0,0,1-4.39,1.09,14.07,14.07,0,0,1-2.34-.22,13.29,13.29,0,0,1-2.53-.69v-2.07a11.66,11.66,0,0,0,2.47,1,8.29,8.29,0,0,0,2.4.34,4.8,4.8,0,0,0,2.75-.67,2.21,2.21,0,0,0,1-1.93,2.12,2.12,0,0,0-.7-1.7,4.79,4.79,0,0,0-2.28-.91l-1.26-.25a6.66,6.66,0,0,1-3.38-1.4,3.32,3.32,0,0,1-1-2.63,3.68,3.68,0,0,1,1.43-3.09,6.27,6.27,0,0,1,4-1.13,13.85,13.85,0,0,1,2.19.18A16.76,16.76,0,0,1,1039.87,538Z"/><path d="M1051.94,545.77a3.54,3.54,0,0,0-.86-2.4,3.05,3.05,0,0,0-2.26-.89,3.68,3.68,0,0,0-2.53.87,3.47,3.47,0,0,0-1.1,2.42Zm1.9.53v.89h-8.71a4.05,4.05,0,0,0,1.18,2.88,4.13,4.13,0,0,0,2.93,1,9.16,9.16,0,0,0,2.11-.24,8.65,8.65,0,0,0,2.05-.79v1.72a9.14,9.14,0,0,1-2.09.63,13.37,13.37,0,0,1-2.17.2,6.09,6.09,0,0,1-4.39-1.52,5.45,5.45,0,0,1-1.61-4.18,6.07,6.07,0,0,1,1.52-4.32,5.54,5.54,0,0,1,4.14-1.6,4.86,4.86,0,0,1,3.69,1.44A5.57,5.57,0,0,1,1053.84,546.3Z"/><path d="M1058.82,538.06v3.14h3.91v1.42h-3.91v6a2.64,2.64,0,0,0,.38,1.74,2.22,2.22,0,0,0,1.58.39h2v1.52h-2a4.37,4.37,0,0,1-3-.79,3.91,3.91,0,0,1-.83-2.86v-6h-1.39V541.2h1.39v-3.14Z"/><path d="M1071.8,544.33a4,4,0,0,1,2.32,1.28A3.59,3.59,0,0,1,1075,548a4,4,0,0,1-1.56,3.39,7.27,7.27,0,0,1-4.45,1.17,13.39,13.39,0,0,1-4.11-.71v-1.92a7.14,7.14,0,0,0,1.89.73,9.41,9.41,0,0,0,2.16.24,5,5,0,0,0,3-.73,2.53,2.53,0,0,0,1-2.17,2.45,2.45,0,0,0-1-2,4.27,4.27,0,0,0-2.66-.75h-1.8v-1.64h1.88a3.89,3.89,0,0,0,2.34-.59,2,2,0,0,0,.83-1.71,2,2,0,0,0-.85-1.74,4.06,4.06,0,0,0-2.4-.61,10.3,10.3,0,0,0-1.84.18,19.5,19.5,0,0,0-2.15.55v-1.78a18.85,18.85,0,0,1,2.22-.47,13.27,13.27,0,0,1,2-.16,6.11,6.11,0,0,1,3.73,1,3.31,3.31,0,0,1,1.4,2.8,3.12,3.12,0,0,1-.74,2.07A3.79,3.79,0,0,1,1071.8,544.33Z"/><g class="cls-9"><rect class="cls-10" x="-35.69" y="167.11" width="655.01" height="669.74"/><g class="cls-11"><path class="cls-4" d="M550.84,273.12A255.45,255.45,0,1,0,318.07,624.39a202.57,202.57,0,0,1,.08-376.51,160.54,160.54,0,0,1,232.69,25.24"/></g><g class="cls-11"><path class="cls-5" d="M550.84,273.12a255.94,255.94,0,0,1,9.66,28.36,252.87,252.87,0,0,1,6.27,29.3q4.79,7.83,8.82,16.06t7.34,16.79a159.91,159.91,0,0,0-32.09-90.51"/></g><g class="cls-11"><path class="cls-12" d="M550.84,273.12a160.58,160.58,0,0,0-232.69-25.24,203.2,203.2,0,0,1,248.62,82.9,252.87,252.87,0,0,0-6.27-29.3,255.94,255.94,0,0,0-9.66-28.36"/></g><g class="cls-11"><path class="cls-6" d="M318.07,624.39A202.79,202.79,0,0,0,582.93,363.63a160,160,0,0,1-32.09,101.92A255.52,255.52,0,0,1,318.07,624.39"/></g><g class="cls-11"><path class="cls-7" d="M318.07,624.39A255.52,255.52,0,0,0,550.84,465.55,160.28,160.28,0,1,1,318.15,247.88a202.57,202.57,0,0,0-.08,376.51"/></g><g class="cls-11"><path class="cls-8" d="M566.77,330.78a254.61,254.61,0,0,1-15.93,134.77,160,160,0,0,0,32.09-101.92q-3.28-8.56-7.34-16.79t-8.82-16.06"/></g><g class="cls-11"><path class="cls-13" d="M318.15,247.88A160.22,160.22,0,1,0,550.84,465.55a254.61,254.61,0,0,0,15.93-134.77,203.2,203.2,0,0,0-248.62-82.9"/></g><path d="M183.07,276.82h2v7.67h1.68v1.32h-1.68v2.78h-1.59v-2.78h-5.32v-1.53Zm.42,1.39-4,6.28h4Z"/><polygon points="188.99 276.82 196.58 276.82 196.58 277.5 192.29 288.59 190.63 288.59 194.65 278.16 188.99 278.16 188.99 276.82"/><path d="M203.65,276.82h2v7.67h1.68v1.32h-1.68v2.78h-1.58v-2.78h-5.33v-1.53Zm.42,1.39-4,6.28h4Z"/><path d="M571.09,310.53a3.47,3.47,0,0,1,3,1.57,8.19,8.19,0,0,1,1.06,4.54,8.09,8.09,0,0,1-1.06,4.53,3.44,3.44,0,0,1-3,1.55,3.39,3.39,0,0,1-3-1.55,8.1,8.1,0,0,1-1-4.53,8.2,8.2,0,0,1,1-4.54A3.45,3.45,0,0,1,571.09,310.53Zm0,1.26a2,2,0,0,0-1.86,1.21,11.14,11.14,0,0,0,0,7.27,2,2,0,0,0,3.72,0,11.14,11.14,0,0,0,0-7.27A2,2,0,0,0,571.09,311.79Z"/><path d="M452.49,229.3a3,3,0,0,1,1.77,1,2.91,2.91,0,0,1,.65,1.91,3.23,3.23,0,0,1-1.2,2.69,5.41,5.41,0,0,1-3.41.94,8,8,0,0,1-1.53-.15,9.39,9.39,0,0,1-1.62-.41v-1.54a5.3,5.3,0,0,0,1.45.58,6.78,6.78,0,0,0,1.65.2,3.79,3.79,0,0,0,2.28-.58,2,2,0,0,0,.8-1.73,2,2,0,0,0-.73-1.62,3.26,3.26,0,0,0-2-.59h-1.37V228.7h1.44a2.91,2.91,0,0,0,1.79-.47,1.58,1.58,0,0,0,.63-1.36,1.63,1.63,0,0,0-.65-1.38,3,3,0,0,0-1.84-.49,7.29,7.29,0,0,0-1.41.15,13.52,13.52,0,0,0-1.65.43v-1.42a15.93,15.93,0,0,1,1.7-.37,9.94,9.94,0,0,1,1.51-.13,4.63,4.63,0,0,1,2.86.82,2.69,2.69,0,0,1,1.07,2.23,2.52,2.52,0,0,1-.57,1.65A2.93,2.93,0,0,1,452.49,229.3Z"/><path d="M459.17,226.86a1.77,1.77,0,0,0,.56,1.43,2.84,2.84,0,0,0,3.22,0,1.78,1.78,0,0,0,.58-1.43,1.76,1.76,0,0,0-.58-1.42,2.75,2.75,0,0,0-3.22,0A1.75,1.75,0,0,0,459.17,226.86Zm.58,2.52a2.89,2.89,0,0,1-1.6-1,2.54,2.54,0,0,1-.57-1.71,2.71,2.71,0,0,1,1-2.23,5.07,5.07,0,0,1,5.53,0,2.75,2.75,0,0,1,1,2.23,2.56,2.56,0,0,1-.59,1.71,2.84,2.84,0,0,1-1.58,1,3.15,3.15,0,0,1,1.79,1.05,2.88,2.88,0,0,1,.65,1.9,3.26,3.26,0,0,1-1.05,2.62,4.47,4.47,0,0,1-3,.9,4.42,4.42,0,0,1-3-.9,3.25,3.25,0,0,1-1-2.62,2.87,2.87,0,0,1,.64-1.9A3.08,3.08,0,0,1,459.75,229.38Zm1.6.67a2.54,2.54,0,0,0-1.8.62,2.15,2.15,0,0,0-.64,1.66,2.19,2.19,0,0,0,.64,1.68,2.58,2.58,0,0,0,1.8.6,2.48,2.48,0,0,0,1.78-.62,2.16,2.16,0,0,0,.66-1.66,2.19,2.19,0,0,0-.65-1.66A2.5,2.5,0,0,0,461.35,230.05Z"/><polygon points="511.69 546.35 519.27 546.35 519.27 547.02 514.99 558.12 513.32 558.12 517.35 547.69 511.69 547.69 511.69 546.35"/><path d="M523.61,549.33a1.83,1.83,0,0,0,.56,1.44,2.38,2.38,0,0,0,1.62.5,2.34,2.34,0,0,0,1.6-.5,1.81,1.81,0,0,0,.58-1.44,1.78,1.78,0,0,0-.58-1.42,2.35,2.35,0,0,0-1.6-.51,2.38,2.38,0,0,0-1.62.51A1.8,1.8,0,0,0,523.61,549.33Zm.58,2.52a2.86,2.86,0,0,1-1.6-1,2.56,2.56,0,0,1-.57-1.71,2.71,2.71,0,0,1,1-2.23,4.19,4.19,0,0,1,2.76-.82,4.27,4.27,0,0,1,2.77.82,2.75,2.75,0,0,1,1,2.23,2.62,2.62,0,0,1-.58,1.71,2.83,2.83,0,0,1-1.59,1,3.26,3.26,0,0,1,1.8,1,3,3,0,0,1,.64,1.91,3.25,3.25,0,0,1-1.05,2.61,4.42,4.42,0,0,1-3,.91,4.37,4.37,0,0,1-3-.91,3.27,3.27,0,0,1-1-2.61,2.9,2.9,0,0,1,.64-1.91A3.13,3.13,0,0,1,524.19,551.85Zm1.6.68a2.54,2.54,0,0,0-1.79.61,2.16,2.16,0,0,0-.65,1.67,2.18,2.18,0,0,0,.65,1.68,2.53,2.53,0,0,0,1.79.59,2.47,2.47,0,0,0,1.78-.61,2.13,2.13,0,0,0,.66-1.66,2.22,2.22,0,0,0-.64-1.67A2.58,2.58,0,0,0,525.79,552.53Z"/><path d="M283,487.87h5.57v1.34H281v-1.34l2.47-2.52c1-1,1.7-1.72,2-2a6.48,6.48,0,0,0,1.06-1.45,2.6,2.6,0,0,0,.31-1.18,2,2,0,0,0-.66-1.52,2.48,2.48,0,0,0-1.72-.6,5.73,5.73,0,0,0-1.58.26,10.28,10.28,0,0,0-1.78.79V478a12.79,12.79,0,0,1,1.8-.58,6.7,6.7,0,0,1,1.53-.2,4.36,4.36,0,0,1,2.91.92,3,3,0,0,1,1.1,2.44,3.45,3.45,0,0,1-.27,1.37,6,6,0,0,1-1,1.54q-.19.24-1.26,1.32T283,487.87Z"/><path d="M296.7,482.87a3,3,0,0,1,1.78,1,2.93,2.93,0,0,1,.65,1.9,3.28,3.28,0,0,1-1.2,2.7,5.43,5.43,0,0,1-3.41.93,9.09,9.09,0,0,1-1.54-.14,9.45,9.45,0,0,1-1.62-.42v-1.54a5.39,5.39,0,0,0,1.46.59,7.31,7.31,0,0,0,1.65.19,3.76,3.76,0,0,0,2.28-.58,2,2,0,0,0,.79-1.73,1.93,1.93,0,0,0-.73-1.61,3.15,3.15,0,0,0-2-.6H293.4v-1.31h1.44a2.86,2.86,0,0,0,1.8-.47,1.56,1.56,0,0,0,.63-1.35,1.66,1.66,0,0,0-.65-1.39,3.07,3.07,0,0,0-1.84-.49,7.21,7.21,0,0,0-1.41.15,13.69,13.69,0,0,0-1.65.44v-1.43a15.42,15.42,0,0,1,1.7-.37,9.92,9.92,0,0,1,1.5-.13,4.54,4.54,0,0,1,2.86.83,2.65,2.65,0,0,1,1.07,2.23,2.51,2.51,0,0,1-.56,1.64A2.9,2.9,0,0,1,296.7,482.87Z"/><path d="M307,482.87a3,3,0,0,1,1.78,1,2.93,2.93,0,0,1,.64,1.9,3.27,3.27,0,0,1-1.19,2.7,5.44,5.44,0,0,1-3.42.93,9,9,0,0,1-1.53-.14,9.45,9.45,0,0,1-1.62-.42v-1.54a5.26,5.26,0,0,0,1.46.59,7.18,7.18,0,0,0,1.65.19,3.76,3.76,0,0,0,2.28-.58,2.06,2.06,0,0,0,.79-1.73,1.93,1.93,0,0,0-.73-1.61,3.16,3.16,0,0,0-2-.6h-1.37v-1.31h1.44a2.85,2.85,0,0,0,1.79-.47,1.56,1.56,0,0,0,.63-1.35,1.66,1.66,0,0,0-.64-1.39,3.08,3.08,0,0,0-1.85-.49,7.19,7.19,0,0,0-1.4.15,12.78,12.78,0,0,0-1.65.44v-1.43a15.27,15.27,0,0,1,1.69-.37,9.94,9.94,0,0,1,1.51-.13,4.54,4.54,0,0,1,2.86.83,2.67,2.67,0,0,1,1.07,2.23,2.52,2.52,0,0,1-.57,1.64A2.83,2.83,0,0,1,307,482.87Z"/><polygon points="564.4 404.38 567 404.38 567 395.41 564.17 395.97 564.17 394.52 566.99 393.95 568.59 393.95 568.59 404.38 571.19 404.38 571.19 405.72 564.4 405.72 564.4 404.38"/><path d="M577.82,393.74a3.48,3.48,0,0,1,3,1.57,8.28,8.28,0,0,1,1,4.54,8.17,8.17,0,0,1-1,4.53,3.45,3.45,0,0,1-3,1.55,3.41,3.41,0,0,1-3-1.55,8.19,8.19,0,0,1-1-4.53,8.29,8.29,0,0,1,1-4.54A3.48,3.48,0,0,1,577.82,393.74Zm0,1.26a2,2,0,0,0-1.86,1.21,11.14,11.14,0,0,0,0,7.27,2,2,0,0,0,3.72,0,11,11,0,0,0,0-7.27A2,2,0,0,0,577.82,395Z"/><path d="M367.46,405.86h2v7.67h1.68v1.33h-1.68v2.77h-1.59v-2.77h-5.32v-1.54Zm.42,1.39-4,6.28h4Z"/><path d="M377.2,405.65a3.47,3.47,0,0,1,3,1.57,8.2,8.2,0,0,1,1,4.54,8.09,8.09,0,0,1-1,4.53,3.44,3.44,0,0,1-3,1.55,3.39,3.39,0,0,1-3-1.55,8.1,8.1,0,0,1-1-4.53,8.2,8.2,0,0,1,1-4.54A3.45,3.45,0,0,1,377.2,405.65Zm0,1.26a2,2,0,0,0-1.86,1.21,11,11,0,0,0,0,7.27,2,2,0,0,0,3.72,0,11.14,11.14,0,0,0,0-7.27A2,2,0,0,0,377.2,406.91Z"/><path d="M384.09,405.86h6.26v1.34h-4.81v2.89a3.57,3.57,0,0,1,.7-.17,4.14,4.14,0,0,1,.69-.07,4.47,4.47,0,0,1,3.13,1.08,3.83,3.83,0,0,1,1.16,2.92,3.71,3.71,0,0,1-1.2,3,4.9,4.9,0,0,1-3.33,1,13.27,13.27,0,0,1-1.52-.11,9.71,9.71,0,0,1-1.58-.37v-1.6a6,6,0,0,0,1.47.58,6.33,6.33,0,0,0,1.6.18,3.14,3.14,0,0,0,2.17-.71,2.59,2.59,0,0,0,.79-2,2.55,2.55,0,0,0-.79-1.93,3.1,3.1,0,0,0-2.17-.73,5.59,5.59,0,0,0-1.28.15,6.73,6.73,0,0,0-1.29.43Z"/><path d="M117.71,101.21v2a7.6,7.6,0,0,0-2.08-1.34,6.16,6.16,0,0,0-2.31-.44,4.64,4.64,0,0,0-3.72,1.49,7.76,7.76,0,0,0,0,8.54,4.63,4.63,0,0,0,3.72,1.48,5.8,5.8,0,0,0,2.31-.45,6.77,6.77,0,0,0,2.08-1.34v2a7.82,7.82,0,0,1-2.13,1,8.7,8.7,0,0,1-2.37.33,6.67,6.67,0,0,1-5.07-1.94,8.74,8.74,0,0,1,0-10.73,6.68,6.68,0,0,1,5.07-2,8.37,8.37,0,0,1,2.39.33A8,8,0,0,1,117.71,101.21Z"/><path d="M120.66,100.12H125a5.29,5.29,0,0,1,3.59,1.09,4.66,4.66,0,0,1,0,6.29,5.29,5.29,0,0,1-3.59,1.07h-2.41v5.67h-1.92Zm1.92,1.57V107H125a2.88,2.88,0,0,0,2.06-.68,2.62,2.62,0,0,0,.73-2,2.56,2.56,0,0,0-.73-2,2.84,2.84,0,0,0-2.06-.7Z"/><path d="M132.36,100.12h4.33a5.28,5.28,0,0,1,3.59,1.09,4.66,4.66,0,0,1,0,6.29,5.27,5.27,0,0,1-3.59,1.07h-2.41v5.67h-1.92Zm1.92,1.57V107h2.41a2.88,2.88,0,0,0,2.06-.68,2.62,2.62,0,0,0,.74-2,2.57,2.57,0,0,0-.74-2,2.84,2.84,0,0,0-2.06-.7Z"/><path d="M152.55,100.59v1.86a12.16,12.16,0,0,0-2.06-.78,8.52,8.52,0,0,0-1.86-.25,4.25,4.25,0,0,0-2.43.6,2,2,0,0,0-.83,1.72,1.71,1.71,0,0,0,.56,1.42,4.65,4.65,0,0,0,2.13.77l1.17.24a5.9,5.9,0,0,1,3.14,1.43,3.78,3.78,0,0,1,1,2.75,3.64,3.64,0,0,1-1.38,3.1,6.61,6.61,0,0,1-4,1,12,12,0,0,1-2.16-.22,12.27,12.27,0,0,1-2.33-.66v-2a11.27,11.27,0,0,0,2.27,1A7.42,7.42,0,0,0,148,113a4.34,4.34,0,0,0,2.52-.64,2.15,2.15,0,0,0,.89-1.84,2.08,2.08,0,0,0-.64-1.63,4.35,4.35,0,0,0-2.09-.87l-1.17-.24a6,6,0,0,1-3.1-1.33,3.28,3.28,0,0,1-1-2.52,3.58,3.58,0,0,1,1.31-3,5.67,5.67,0,0,1,3.65-1.08,12.91,12.91,0,0,1,2,.17A15.82,15.82,0,0,1,152.55,100.59Z"/><path d="M163.65,108a3.45,3.45,0,0,0-.8-2.29,2.71,2.71,0,0,0-2.07-.85,3.3,3.3,0,0,0-2.33.83,3.38,3.38,0,0,0-1,2.31Zm1.75.5v.85h-8a4,4,0,0,0,1.09,2.75,3.7,3.7,0,0,0,2.69.93,7.94,7.94,0,0,0,2-.23,7.42,7.42,0,0,0,1.88-.76v1.65a8.22,8.22,0,0,1-1.92.6,11.3,11.3,0,0,1-2,.2,5.52,5.52,0,0,1-4-1.46,5.32,5.32,0,0,1-1.47-4,5.89,5.89,0,0,1,1.39-4.12,5,5,0,0,1,3.81-1.54,4.37,4.37,0,0,1,3.39,1.38A5.45,5.45,0,0,1,165.4,108.51Z"/><path d="M170,100.64v3h3.59V105H170v5.76a2.6,2.6,0,0,0,.34,1.66,2.05,2.05,0,0,0,1.46.37h1.79v1.45h-1.79a4,4,0,0,1-2.79-.75,3.83,3.83,0,0,1-.76-2.73V105H167v-1.35h1.28v-3Z"/><polygon points="176.44 112.64 179.56 112.64 179.56 101.86 176.17 102.54 176.17 100.8 179.54 100.12 181.47 100.12 181.47 112.64 184.59 112.64 184.59 114.24 176.44 114.24 176.44 112.64"/><path d="M515.34,196.19v2a7.6,7.6,0,0,0-2.08-1.34,6.24,6.24,0,0,0-2.31-.44,4.67,4.67,0,0,0-3.73,1.49,7.76,7.76,0,0,0,0,8.54,4.66,4.66,0,0,0,3.73,1.47,5.86,5.86,0,0,0,2.31-.44,6.77,6.77,0,0,0,2.08-1.34v2a7.74,7.74,0,0,1-2.14,1,8.64,8.64,0,0,1-2.37.32,6.65,6.65,0,0,1-5.06-1.93,8.72,8.72,0,0,1,0-10.74,6.7,6.7,0,0,1,5.06-1.95,8.32,8.32,0,0,1,2.39.33A8.22,8.22,0,0,1,515.34,196.19Z"/><path d="M518.29,195.11h4.32a5.31,5.31,0,0,1,3.59,1.08,4.65,4.65,0,0,1,0,6.3,5.26,5.26,0,0,1-3.59,1.07h-2.4v5.67h-1.92Zm1.92,1.57V202h2.4a2.85,2.85,0,0,0,2.06-.68,2.62,2.62,0,0,0,.74-2,2.53,2.53,0,0,0-.74-2,2.81,2.81,0,0,0-2.06-.7Z"/><path d="M530,195.11h4.33a5.35,5.35,0,0,1,3.59,1.08,4.68,4.68,0,0,1,0,6.3,5.29,5.29,0,0,1-3.59,1.07h-2.41v5.67H530Zm1.92,1.57V202h2.41a2.84,2.84,0,0,0,2-.68,2.62,2.62,0,0,0,.74-2,2.53,2.53,0,0,0-.74-2,2.8,2.8,0,0,0-2-.7Z"/><path d="M550.17,195.57v1.86a12.88,12.88,0,0,0-2-.77,8,8,0,0,0-1.87-.25,4.21,4.21,0,0,0-2.42.6,2,2,0,0,0-.84,1.72,1.74,1.74,0,0,0,.56,1.42,4.65,4.65,0,0,0,2.14.77l1.16.23a5.94,5.94,0,0,1,3.15,1.44,3.76,3.76,0,0,1,1,2.75,3.68,3.68,0,0,1-1.38,3.1,6.62,6.62,0,0,1-4,1,11.75,11.75,0,0,1-2.15-.21,11.87,11.87,0,0,1-2.33-.66v-2a10.25,10.25,0,0,0,2.27,1,7.06,7.06,0,0,0,2.21.33,4.25,4.25,0,0,0,2.52-.64,2.35,2.35,0,0,0,.26-3.46,4.49,4.49,0,0,0-2.1-.88l-1.16-.23a6,6,0,0,1-3.11-1.33,3.29,3.29,0,0,1-.95-2.52,3.59,3.59,0,0,1,1.32-2.95,5.65,5.65,0,0,1,3.65-1.08,12.91,12.91,0,0,1,2,.17A17.25,17.25,0,0,1,550.17,195.57Z"/><path d="M561.27,203a3.47,3.47,0,0,0-.79-2.28,2.75,2.75,0,0,0-2.08-.85,3.3,3.3,0,0,0-2.33.83,3.42,3.42,0,0,0-1,2.3Zm1.75.51v.85h-8a4,4,0,0,0,1.09,2.75,3.7,3.7,0,0,0,2.7.93,8.31,8.31,0,0,0,1.94-.23,7.81,7.81,0,0,0,1.88-.76v1.65a8.73,8.73,0,0,1-1.92.6,11.28,11.28,0,0,1-2,.19,5.49,5.49,0,0,1-4-1.45,5.33,5.33,0,0,1-1.48-4,5.94,5.94,0,0,1,1.4-4.13,5,5,0,0,1,3.8-1.53,4.39,4.39,0,0,1,3.4,1.38A5.49,5.49,0,0,1,563,203.5Z"/><path d="M567.6,195.63v3h3.59V200H567.6v5.76a2.59,2.59,0,0,0,.35,1.66,2,2,0,0,0,1.46.37h1.78v1.45h-1.78a4,4,0,0,1-2.8-.75,3.87,3.87,0,0,1-.76-2.73V200h-1.28v-1.35h1.28v-3Z"/><path d="M575.38,207.62h6.68v1.61h-9v-1.61l3-3c1.24-1.26,2-2.07,2.37-2.44a7.84,7.84,0,0,0,1.28-1.74,3.26,3.26,0,0,0,.37-1.42,2.34,2.34,0,0,0-.8-1.82,3,3,0,0,0-2-.71,6.55,6.55,0,0,0-1.9.31,12,12,0,0,0-2.14.94v-1.93a14.8,14.8,0,0,1,2.15-.7,7.92,7.92,0,0,1,1.85-.23,5.27,5.27,0,0,1,3.49,1.1,3.66,3.66,0,0,1,1.32,2.93,4.25,4.25,0,0,1-.33,1.64,7,7,0,0,1-1.18,1.84c-.16.2-.66.72-1.52,1.59S576.92,206.06,575.38,207.62Z"/><path d="M365.24,660.79v2a7.6,7.6,0,0,0-2.08-1.34,6.2,6.2,0,0,0-2.31-.44,4.67,4.67,0,0,0-3.73,1.49,7.76,7.76,0,0,0,0,8.54,4.66,4.66,0,0,0,3.73,1.47,5.83,5.83,0,0,0,2.31-.44,6.77,6.77,0,0,0,2.08-1.34v2a7.74,7.74,0,0,1-2.14,1,8.64,8.64,0,0,1-2.37.32,6.65,6.65,0,0,1-5.06-1.93,8.72,8.72,0,0,1,0-10.74,6.7,6.7,0,0,1,5.06-1.95,8.32,8.32,0,0,1,2.39.33A8.22,8.22,0,0,1,365.24,660.79Z"/><path d="M368.19,659.71h4.32a5.31,5.31,0,0,1,3.59,1.08,4.65,4.65,0,0,1,0,6.3,5.26,5.26,0,0,1-3.59,1.07h-2.4v5.67h-1.92Zm1.92,1.57v5.31h2.4a2.85,2.85,0,0,0,2.06-.68,2.6,2.6,0,0,0,.74-2,2.53,2.53,0,0,0-.74-1.95,2.81,2.81,0,0,0-2.06-.7Z"/><path d="M379.89,659.71h4.33a5.35,5.35,0,0,1,3.59,1.08,4.68,4.68,0,0,1,0,6.3,5.29,5.29,0,0,1-3.59,1.07h-2.41v5.67h-1.92Zm1.92,1.57v5.31h2.41a2.84,2.84,0,0,0,2-.68,2.6,2.6,0,0,0,.74-2,2.53,2.53,0,0,0-.74-1.95,2.8,2.8,0,0,0-2-.7Z"/><path d="M400.07,660.17V662a12.53,12.53,0,0,0-2.05-.77,8,8,0,0,0-1.87-.25,4.21,4.21,0,0,0-2.42.6,2,2,0,0,0-.84,1.72,1.72,1.72,0,0,0,.57,1.42,4.56,4.56,0,0,0,2.13.77l1.16.23a6,6,0,0,1,3.15,1.44,3.78,3.78,0,0,1,1,2.75,3.68,3.68,0,0,1-1.38,3.1,6.62,6.62,0,0,1-4,1,12.84,12.84,0,0,1-4.48-.87v-2a10.45,10.45,0,0,0,2.27,1,7.06,7.06,0,0,0,2.21.33,4.3,4.3,0,0,0,2.53-.64,2.13,2.13,0,0,0,.89-1.84,2.09,2.09,0,0,0-.64-1.62,4.39,4.39,0,0,0-2.1-.87l-1.16-.24a6,6,0,0,1-3.11-1.33,3.28,3.28,0,0,1-.95-2.52,3.59,3.59,0,0,1,1.32-3,5.65,5.65,0,0,1,3.65-1.08,12.91,12.91,0,0,1,2,.17A16.8,16.8,0,0,1,400.07,660.17Z"/><path d="M411.17,667.59a3.49,3.49,0,0,0-.79-2.28,2.73,2.73,0,0,0-2.08-.85,3.32,3.32,0,0,0-2.33.83,3.42,3.42,0,0,0-1,2.3Zm1.75.51V669h-8A3.94,3.94,0,0,0,406,671.7a3.72,3.72,0,0,0,2.7.93,8.31,8.31,0,0,0,1.94-.23,7.81,7.81,0,0,0,1.88-.76v1.65a8.73,8.73,0,0,1-1.92.6,11.28,11.28,0,0,1-2,.19,5.5,5.5,0,0,1-4-1.45,5.33,5.33,0,0,1-1.48-4,5.94,5.94,0,0,1,1.4-4.13,5,5,0,0,1,3.8-1.53,4.39,4.39,0,0,1,3.4,1.38A5.49,5.49,0,0,1,412.92,668.1Z"/><path d="M417.5,660.23v3h3.59v1.35H417.5v5.76a2.59,2.59,0,0,0,.35,1.66,2,2,0,0,0,1.46.37h1.78v1.45h-1.78a4,4,0,0,1-2.8-.75,3.87,3.87,0,0,1-.76-2.73v-5.76h-1.28v-1.35h1.28v-3Z"/><path d="M429.44,666.22a3.58,3.58,0,0,1,2.13,1.22,3.51,3.51,0,0,1,.78,2.29,3.9,3.9,0,0,1-1.44,3.23,6.48,6.48,0,0,1-4.09,1.12,9.8,9.8,0,0,1-1.85-.17,11.56,11.56,0,0,1-1.94-.5v-1.84a6.27,6.27,0,0,0,1.75.69,7.9,7.9,0,0,0,2,.24,4.59,4.59,0,0,0,2.74-.7,2.45,2.45,0,0,0,.95-2.07,2.33,2.33,0,0,0-.88-1.94,3.77,3.77,0,0,0-2.44-.72h-1.65V665.5h1.73a3.46,3.46,0,0,0,2.15-.56,1.9,1.9,0,0,0,.76-1.63,2,2,0,0,0-.78-1.66,3.63,3.63,0,0,0-2.21-.58,8.57,8.57,0,0,0-1.69.17,18.37,18.37,0,0,0-2,.52v-1.7a18.08,18.08,0,0,1,2-.45,12.6,12.6,0,0,1,1.8-.15,5.49,5.49,0,0,1,3.44,1,3.2,3.2,0,0,1,1.28,2.67,3,3,0,0,1-.68,2A3.43,3.43,0,0,1,429.44,666.22Z"/></g></svg>